<svg width="319" height="76" viewBox="0 0 319 76" fill="none" xmlns="http://www.w3.org/2000/svg">
<path d="M18.6474 50.7325L26.7216 28.6234L33.9306 50.7325H18.6474ZM51.713 74.7169L26.7216 0L0 74.7169H9.99656L14.9948 60.8H36.7181L41.7164 74.7169H51.713Z" fill="#D81D99"/>
<path d="M56.739 74.7169H66.0627V4.34285H56.739V74.7169Z" fill="#D81D99"/>
<path d="M84.0914 28.3273H74.8638V53.8909C74.8638 68.5974 81.4 75.9013 94.8569 75.9013C102.162 75.9013 107.449 73.7299 111.294 68.5974C114.658 64.1558 114.85 59.6156 114.85 53.8909V28.3273H105.622V53.6935C105.622 62.1818 101.778 66.6234 94.7608 66.6234C87.8401 66.6234 84.0914 62.1818 84.0914 53.6935V28.3273Z" fill="#D81D99"/>
<path d="M124.099 74.7169H133.231V47.7714C133.231 40.8623 137.268 37.2104 144.669 37.2104C145.054 37.2104 145.438 37.2104 145.823 37.2104V27.7351C145.342 27.7351 144.861 27.7351 144.477 27.7351C132.174 27.7351 124.099 35.5325 124.099 47.8701V74.7169Z" fill="#D81D99"/>
<path d="M172.297 36.2234C180.371 36.2234 186.619 42.7377 186.619 51.6208C186.619 60.6026 180.66 66.6234 171.817 66.6234C163.358 66.6234 157.398 60.6026 157.398 52.1143C157.398 42.639 164.031 36.2234 172.297 36.2234ZM192.002 63.9584L195.558 74.8156H205.17L196.423 47.9688C194.693 42.5403 193.059 37.7039 189.214 33.7558C184.793 29.3143 179.314 27.0442 172.586 27.0442C158.36 27.0442 147.979 37.9013 147.979 51.5221C147.979 65.7351 157.783 76 171.817 76C180.756 76 187.773 71.8545 192.002 63.9584Z" fill="#D81D99"/>
<path d="M208.258 74.7169H217.389V53.2C228.731 53.3974 234.499 59.813 234.499 72.5455C234.499 73.2364 234.402 73.9273 234.402 74.7169H243.63C243.63 74.1247 243.63 73.6312 243.63 73.039C243.63 59.0234 238.824 50.5351 229.02 47.2779L243.63 28.3273H232.48L217.389 48.1662V4.34285H208.258V74.7169Z" fill="#D81D99"/>
<path d="M258.134 28.3273H248.906V53.8909C248.906 68.5974 255.442 75.9013 268.899 75.9013C276.204 75.9013 281.491 73.7299 285.336 68.5974C288.7 64.1558 288.892 59.6156 288.892 53.8909V28.3273H279.665V53.6935C279.665 62.1818 275.82 66.6234 268.803 66.6234C261.882 66.6234 258.134 62.1818 258.134 53.6935V28.3273Z" fill="#D81D99"/>
<path d="M294.585 36.5195H299.199V53.8909C299.199 67.1169 306.216 74.5195 319 74.7169V65.2416C311.118 64.452 308.234 60.2078 308.234 51.1273V36.5195H318.423V28.3273H308.234V17.3714H299.199V28.3273H294.585V36.5195Z" fill="#D81D99"/>
</svg>
